<svg version="1.1" id="Layer_1" xmlns="http://www.w3.org/2000/svg" xmlns:xlink="http://www.w3.org/1999/xlink" x="0px" y="0px"
	 width="100%" viewBox="0 0 1024 1024" enable-background="new 0 0 1024 1024" xml:space="preserve">
<path fill="#000000" opacity="1.000000" stroke="none" 
	d="
M404.733612,519.281250 
	C420.458496,537.560669 439.751160,548.218201 463.715118,549.599243 
	C467.032806,549.790344 468.067535,551.150574 467.980438,554.215698 
	C467.710815,563.704285 467.464294,573.195129 467.388428,582.686584 
	C467.360718,586.160583 465.402740,586.344421 462.800110,586.123047 
	C419.786682,582.466614 387.684692,561.440491 366.904663,524.004333 
	C333.268982,463.408203 354.400024,387.953949 414.385803,353.062164 
	C425.977753,346.319550 438.623688,342.543854 452.421875,342.582947 
	C523.407959,342.784180 594.394958,342.697052 665.381592,342.742035 
	C667.509094,342.743378 669.708740,342.301178 672.577820,343.625702 
	C661.029053,359.290466 649.602661,374.789124 638.176331,390.287811 
	C638.355042,390.809723 638.533691,391.331665 638.712402,391.853607 
	C643.781311,391.853607 648.857178,391.687683 653.917236,391.899384 
	C659.173706,392.119354 665.820129,389.534332 669.301331,393.329529 
	C672.473877,396.788147 670.114136,403.229645 670.308655,408.350067 
	C670.479309,412.842743 670.289246,417.347900 670.364197,421.845795 
	C670.407654,424.454681 669.746277,425.699341 666.666687,425.627869 
	C657.844116,425.423309 649.010376,425.512390 640.185120,425.689331 
	C635.971191,425.773804 633.438721,424.650330 633.952454,419.813904 
	C634.197571,417.506165 634.108582,415.148682 634.004883,412.821136 
	C633.808411,408.411896 632.026550,407.366150 628.319519,409.855560 
	C623.702942,412.955750 620.385498,417.437164 617.153931,421.872467 
	C615.306213,424.408539 613.227783,425.476624 610.044861,425.442627 
	C597.215637,425.305756 584.381470,425.282898 571.554382,425.512848 
	C567.683838,425.582214 566.541931,424.066772 566.725403,420.538025 
	C566.872192,417.714691 566.534607,414.864471 566.710327,412.044800 
	C566.933350,408.466766 565.625732,406.998413 561.886169,406.906433 
	C549.646423,406.605347 549.519531,406.492096 549.493347,418.728882 
	C549.416443,454.715576 549.455750,490.702484 549.442993,526.689331 
	C549.421753,586.485840 549.429077,646.282349 549.331848,706.078735 
	C549.318481,714.285278 547.384888,721.941162 540.992371,727.815125 
	C539.327209,729.345154 538.807312,731.474182 538.327515,733.617798 
	C532.736511,758.594116 526.841125,783.497864 520.341919,808.254944 
	C519.815674,810.259521 519.780701,812.631165 517.484314,813.794067 
	C515.263245,813.132751 515.172180,811.118835 514.673157,809.428589 
	C507.369720,784.690979 502.613617,759.340637 496.637634,734.283447 
	C496.096344,732.013916 495.807281,729.678406 493.968414,727.968445 
	C486.532623,721.053772 484.710815,712.080444 484.708374,702.479065 
	C484.693726,644.489990 484.694061,586.500916 484.699860,528.511841 
	C484.703705,489.852875 484.677887,451.193756 484.808807,412.535187 
	C484.822388,408.519745 483.829010,406.849152 479.493683,406.998962 
	C466.732330,407.439880 468.208679,405.075897 467.899811,418.457581 
	C467.872894,419.623535 467.800659,420.796570 467.889130,421.955658 
	C468.181976,425.791718 467.031738,427.647827 462.686737,428.622925 
	C436.927429,434.403900 427.191986,467.653931 445.169647,487.707550 
	C450.300140,493.430481 456.236237,497.799500 464.140564,498.790924 
	C466.373840,499.070984 467.876251,500.049500 467.912079,502.578094 
	C468.088867,515.048279 467.893372,527.508179 467.162048,540.343628 
	C456.827240,540.780151 447.226959,538.602417 438.125488,534.324097 
	C409.781036,521.000305 390.960907,489.461121 393.867035,458.279083 
	C396.654053,428.374817 411.730408,406.154083 438.900879,392.759247 
	C445.960022,389.279144 453.741852,387.734802 461.638580,387.716827 
	C499.631226,387.630280 537.624207,387.660217 575.617004,387.714722 
	C577.915283,387.718018 580.205811,388.366638 582.512390,388.581055 
	C585.653625,388.872986 588.414429,388.069946 588.769775,384.468292 
	C589.111877,380.999725 587.243713,378.650574 583.683655,378.316925 
	C581.045898,378.069702 578.359436,378.377472 575.694641,378.378357 
	C539.368225,378.390747 503.041779,378.375641 466.715332,378.403015 
	C440.433228,378.422821 419.426331,389.150330 403.399963,409.829590 
	C400.403748,413.695709 398.088745,417.765656 398.933075,423.101013 
	C399.320679,425.550293 398.554626,428.369141 395.718414,429.246155 
	C391.809998,430.454712 390.402863,433.480621 389.277527,436.867004 
	C380.318848,463.825562 384.326813,488.987396 399.823547,512.532349 
	C401.286438,514.754883 402.945831,516.848145 404.733612,519.281250 
M523.703430,574.500122 
	C523.706360,520.841492 523.709900,467.182861 523.711304,413.524231 
	C523.711487,406.521240 523.706482,406.520477 516.611023,406.414673 
	C515.944641,406.404724 515.277527,406.428345 514.611511,406.410278 
	C511.168762,406.316803 509.824219,408.121643 509.986298,411.401642 
	C510.150696,414.728577 510.339752,418.059418 510.340454,421.388580 
	C510.354828,489.878052 510.345123,558.367554 510.337097,626.856995 
	C510.333862,654.186157 510.287689,681.515381 510.345795,708.844421 
	C510.357269,714.234985 513.177490,717.681335 517.143982,717.755615 
	C521.216248,717.831848 523.753357,714.526123 523.752808,708.979370 
	C523.748291,664.486328 523.725403,619.993286 523.703430,574.500122 
z"/>
<path fill="#000000" opacity="1.000000" stroke="none" 
	d="
M588.971680,246.035065 
	C609.943970,265.866943 619.302368,290.468140 620.911682,318.417267 
	C621.312622,325.381165 620.725647,325.854706 613.792480,325.866852 
	C582.817627,325.921051 551.842590,325.922211 520.867676,325.931213 
	C487.394928,325.940948 453.921844,325.873230 420.449768,326.022919 
	C416.264954,326.041626 414.635254,325.131866 414.574738,320.550079 
	C413.940399,272.509094 447.840668,229.099182 494.837036,219.235825 
	C530.512146,211.748535 562.022400,220.679611 588.971680,246.035065 
z"/>
<path fill="#000000" opacity="1.000000" stroke="none" 
	d="
M637.379456,521.571777 
	C660.284729,540.147278 673.942383,563.879700 677.952515,592.554932 
	C682.567322,625.553284 673.979248,655.133179 652.256165,680.763794 
	C636.158569,699.757019 616.259521,712.126648 591.699036,716.740540 
	C585.141602,717.972473 578.531067,718.456482 571.835083,718.320557 
	C568.159058,718.245850 566.797058,716.839417 566.801575,713.277161 
	C566.832703,688.786560 566.801147,664.295654 566.723022,639.805115 
	C566.713562,636.836121 567.912415,635.862427 570.862976,635.633789 
	C584.669861,634.564148 595.171448,624.220276 595.666382,611.503174 
	C596.213074,597.458252 587.062927,586.621582 572.226379,584.676880 
	C567.816162,584.098816 566.620483,582.483826 566.710022,578.460144 
	C566.876709,570.966980 567.100037,563.442993 566.605591,555.977844 
	C566.242371,550.494568 568.628113,549.101501 573.464722,548.966980 
	C594.182434,548.390808 610.684265,556.655457 623.195618,572.846252 
	C646.842224,603.446960 637.814697,649.545593 604.427795,669.394470 
	C602.012451,670.830444 599.204407,671.614746 596.820129,673.091492 
	C594.523071,674.514221 592.345886,676.466797 594.086975,679.630005 
	C595.780579,682.707092 598.228699,682.893127 601.275452,681.344238 
	C626.153992,668.696777 641.494019,649.278625 644.862854,621.025391 
	C647.768372,596.657349 640.237061,575.995850 622.927185,558.976379 
	C610.569458,546.826050 595.534851,540.384827 578.005676,540.316895 
	C577.006042,540.312988 576.006409,540.305908 575.006836,540.295166 
	C566.886536,540.207947 566.838440,540.207886 566.775513,532.055420 
	C566.706055,523.059265 566.906250,514.057434 566.649048,505.067719 
	C566.528076,500.838287 568.190002,499.754181 572.193787,499.621368 
	C596.565369,498.812958 617.984924,506.587219 637.379456,521.571777 
z"/>
<path fill="#000000" opacity="1.000000" stroke="none" 
	d="
M404.823273,657.681213 
	C393.664978,657.808899 382.834595,657.876465 372.008270,658.122620 
	C368.100555,658.211487 366.619904,656.502502 366.741119,652.726257 
	C366.874664,648.564758 366.911987,644.383301 366.656342,640.231140 
	C366.420319,636.397766 367.782654,634.823608 371.741150,634.865540 
	C382.738647,634.981873 393.738983,634.804260 404.738220,634.792114 
	C423.571289,634.771301 442.405670,634.905518 461.236603,634.703247 
	C465.717102,634.655212 467.571228,635.427124 467.690704,640.606323 
	C467.921265,650.601196 466.860596,660.527344 467.369141,670.211304 
	C465.400208,671.891418 463.484528,671.335754 461.725250,671.343933 
	C449.058868,671.402893 436.392151,671.383057 423.725525,671.394470 
	C422.226013,671.395874 420.695099,671.248962 419.233582,671.495667 
	C416.209961,672.006104 413.554443,673.611877 413.707733,676.866150 
	C413.859344,680.085938 416.639984,680.890198 419.603302,680.881714 
	C433.769745,680.840942 447.937408,680.941956 462.102264,680.783203 
	C466.300323,680.736145 467.689636,681.844482 467.777496,686.480896 
	C467.951385,695.656311 467.067566,704.796143 467.407227,713.952759 
	C467.502075,716.509033 466.958801,718.044922 463.921753,718.035706 
	C432.424011,717.940125 400.926056,717.922729 369.428192,717.859192 
	C368.806732,717.857971 368.185883,717.561768 367.572479,717.405151 
	C366.811798,715.106750 368.438873,713.835632 369.436707,712.447754 
	C380.718445,696.756958 392.061859,681.110474 403.363464,665.433960 
	C404.626160,663.682495 405.790741,661.853027 406.896637,659.997620 
	C408.123291,657.939575 406.532562,657.860535 404.823273,657.681213 
z"/>
<path fill="#000000" opacity="1.000000" stroke="none" 
	d="
M271.358856,504.673889 
	C283.647583,504.658691 295.477966,504.597931 307.307770,504.658661 
	C312.892578,504.687317 315.298309,506.967072 315.335510,511.890137 
	C315.371704,516.679138 312.736206,519.284241 307.387512,519.320984 
	C295.557861,519.402222 283.726532,519.410522 271.897339,519.296753 
	C267.251984,519.252075 263.768860,516.115967 263.910706,512.107788 
	C264.063904,507.777130 266.088287,504.817230 271.358856,504.673889 
z"/>
<path fill="#000000" opacity="1.000000" stroke="none" 
	d="
M757.784729,519.353943 
	C746.857727,519.350098 736.400940,519.449158 725.947754,519.297852 
	C719.313782,519.201904 715.863037,513.482178 718.936707,508.060089 
	C720.411133,505.459076 722.698792,504.624756 725.608459,504.638702 
	C736.893127,504.692780 748.178284,504.596405 759.463196,504.619049 
	C765.389465,504.630920 768.197327,506.910187 768.281250,511.579254 
	C768.359985,515.957031 765.092285,518.930115 759.749695,519.330139 
	C759.254211,519.367310 758.754333,519.345398 757.784729,519.353943 
z"/>
<path fill="#000000" opacity="1.000000" stroke="none" 
	d="
M375.158081,278.253357 
	C374.509949,274.036285 373.883759,270.121796 377.749542,267.532806 
	C380.662811,265.581726 383.889343,264.958008 387.143036,266.642487 
	C390.880249,268.577332 392.716370,271.675964 392.243652,275.984314 
	C391.834869,279.709991 389.697449,282.197815 386.224457,283.031555 
	C381.733368,284.109619 377.610413,283.426697 375.158081,278.253357 
z"/>
<path fill="#000000" opacity="1.000000" stroke="none" 
	d="
M598.569092,459.246887 
	C603.148499,456.808472 607.413086,456.711853 610.620605,460.483459 
	C613.483459,463.849701 613.204529,468.068268 610.692505,471.539703 
	C608.238464,474.931061 604.487671,475.830048 600.491821,474.383881 
	C594.335266,472.155701 593.253174,464.701019 598.569092,459.246887 
z"/>
<path fill="#000000" opacity="1.000000" stroke="none" 
	d="
M683.540710,471.222107 
	C681.208008,464.517029 682.461914,460.309814 687.374146,458.360382 
	C691.248413,456.822876 695.047058,457.294861 697.747498,460.729218 
	C700.377869,464.074371 700.532410,467.904053 697.926758,471.330414 
	C695.226685,474.880829 691.493652,475.778961 687.248718,474.273956 
	C685.783752,473.754578 684.714966,472.725586 683.540710,471.222107 
z"/>
<path fill="#000000" opacity="1.000000" stroke="none" 
	d="
M381.086517,611.240845 
	C376.096405,608.657837 376.151520,604.412598 376.878387,600.238647 
	C377.449799,596.957520 380.088898,595.259277 383.253967,594.787964 
	C386.903687,594.244507 390.410675,594.814941 392.317841,598.424561 
	C394.141266,601.875793 394.176849,605.651184 391.704498,608.754272 
	C389.114746,612.004700 385.561188,613.166321 381.086517,611.240845 
z"/>
<path fill="#000000" opacity="1.000000" stroke="none" 
	d="
M634.837769,460.377045 
	C638.036682,468.010956 636.160156,473.114441 630.051270,474.577576 
	C626.225464,475.493896 623.031372,474.408539 620.945740,471.187225 
	C618.902588,468.031525 618.981445,464.535553 621.091064,461.359070 
	C623.392334,457.894135 626.851929,457.026703 630.705017,457.950226 
	C632.082397,458.280334 633.287231,459.330444 634.837769,460.377045 
z"/>
<path fill="#000000" opacity="1.000000" stroke="none" 
	d="
M654.292847,474.455627 
	C649.931580,475.423798 646.531128,474.455078 644.428528,470.875183 
	C642.749695,468.016754 642.497131,464.845551 644.428528,461.895599 
	C646.526306,458.691528 649.531738,457.149780 653.376831,457.768951 
	C657.220093,458.387878 659.793091,460.597137 660.252136,464.562683 
	C660.775085,469.080322 659.618774,472.854034 654.292847,474.455627 
z"/>
<path fill="#000000" opacity="1.000000" stroke="none" 
	d="
M417.711029,599.826172 
	C419.020233,604.654114 418.220215,608.474976 413.941864,610.839111 
	C409.603271,613.236389 404.516937,611.814453 402.326080,607.799805 
	C400.096039,603.713318 401.403992,598.494995 405.277771,596.023376 
	C409.503052,593.327454 413.860504,594.547363 417.711029,599.826172 
z"/>
<path fill="#000000" opacity="1.000000" stroke="none" 
	d="
M652.606934,266.121765 
	C654.952759,266.952789 656.732544,268.114624 653.779480,269.654297 
	C651.240845,270.977905 649.147888,272.489319 650.761902,275.261505 
	C652.542236,278.319580 655.043823,276.355957 657.184509,275.114380 
	C657.741150,274.791565 658.301575,274.475555 658.883789,274.143036 
	C660.194214,277.762695 659.565430,280.073883 656.469971,281.977692 
	C653.207397,283.984283 649.846863,283.939301 646.753357,281.522858 
	C643.604736,279.063416 643.094788,275.552307 643.968018,272.055817 
	C644.983521,267.990082 648.467590,266.663544 652.606934,266.121765 
z"/>
<path fill="#000000" opacity="1.000000" stroke="none" 
	d="
M349.995636,582.249268 
	C346.414276,582.682373 344.864624,581.276184 344.866333,578.154480 
	C344.867615,575.847534 344.828857,573.536255 344.956940,571.235229 
	C345.035767,569.818787 345.689941,568.598999 347.360016,568.654358 
	C348.934631,568.706604 350.741089,568.149597 351.905121,569.786011 
	C353.152100,571.539001 352.106964,580.167725 349.995636,582.249268 
z"/>
</svg>